<?xml version="1.0" encoding="UTF-8" standalone="no"?>
<svg
   width="98"
   height="26"
   viewBox="0 0 98 26"
   fill="none"
   version="1.1"
   id="svg1"
   sodipodi:docname="logo.svg"
   inkscape:version="1.4.3 (0d15f75, 2025-12-25)"
   xmlns:inkscape="http://www.inkscape.org/namespaces/inkscape"
   xmlns:sodipodi="http://sodipodi.sourceforge.net/DTD/sodipodi-0.dtd"
   xmlns="http://www.w3.org/2000/svg"
   xmlns:svg="http://www.w3.org/2000/svg">
  <defs
     id="defs1" />
  <sodipodi:namedview
     id="namedview1"
     pagecolor="#ffffff"
     bordercolor="#000000"
     borderopacity="0.25"
     inkscape:showpageshadow="2"
     inkscape:pageopacity="0.0"
     inkscape:pagecheckerboard="0"
     inkscape:deskcolor="#d1d1d1"
     inkscape:zoom="8"
     inkscape:cx="70.6875"
     inkscape:cy="-25.0625"
     inkscape:window-width="2560"
     inkscape:window-height="1377"
     inkscape:window-x="3832"
     inkscape:window-y="559"
     inkscape:window-maximized="1"
     inkscape:current-layer="svg1" />
  <path
     d="M7.316 0.676V1.236C6.68133 1.25467 6.196 1.32933 5.86 1.46C5.54267 1.572 5.328 1.796 5.216 2.132C5.104 2.44933 5.048 2.95333 5.048 3.644V17.532C5.048 18.204 5.104 18.708 5.216 19.044C5.328 19.38 5.54267 19.604 5.86 19.716C6.196 19.8093 6.68133 19.856 7.316 19.856H9.36C10.2373 19.856 10.9467 19.7627 11.488 19.576C12.048 19.3893 12.4867 19.1 12.804 18.708C13.14 18.2973 13.392 17.756 13.56 17.084C13.728 16.412 13.8587 15.5907 13.952 14.62H14.596C14.54 15.1987 14.512 15.964 14.512 16.916C14.512 17.2707 14.5213 17.784 14.54 18.456C14.5773 19.1093 14.6333 19.7907 14.708 20.5C13.756 20.4627 12.6827 20.444 11.488 20.444C10.2933 20.4253 9.22933 20.416 8.296 20.416C7.88533 20.416 7.35333 20.416 6.7 20.416C6.06533 20.416 5.37467 20.4253 4.628 20.444C3.88133 20.444 3.12533 20.4533 2.36 20.472C1.59467 20.472 0.866667 20.4813 0.176 20.5V19.94C0.810667 19.9027 1.28667 19.828 1.604 19.716C1.94 19.604 2.164 19.38 2.276 19.044C2.388 18.708 2.444 18.204 2.444 17.532V3.644C2.444 2.95333 2.388 2.44933 2.276 2.132C2.164 1.796 1.94 1.572 1.604 1.46C1.28667 1.32933 0.810667 1.25467 0.176 1.236V0.676C0.568 0.694666 1.08133 0.713333 1.716 0.731999C2.35067 0.750666 3.032 0.759999 3.76 0.759999C4.41333 0.759999 5.05733 0.750666 5.692 0.731999C6.34533 0.713333 6.88667 0.694666 7.316 0.676ZM23.1329 5.688C24.3276 5.688 25.4009 5.94933 26.3529 6.472C27.3049 6.99467 28.0609 7.816 28.6209 8.936C29.1996 10.056 29.4889 11.512 29.4889 13.304C29.4889 15.096 29.1996 16.552 28.6209 17.672C28.0609 18.7733 27.3049 19.5853 26.3529 20.108C25.4009 20.6307 24.3276 20.892 23.1329 20.892C21.9569 20.892 20.8836 20.6307 19.9129 20.108C18.9609 19.5853 18.1956 18.7733 17.6169 17.672C17.0569 16.552 16.7769 15.096 16.7769 13.304C16.7769 11.512 17.0569 10.056 17.6169 8.936C18.1956 7.816 18.9609 6.99467 19.9129 6.472C20.8836 5.94933 21.9569 5.688 23.1329 5.688ZM23.1329 6.248C22.0689 6.248 21.1916 6.79867 20.5009 7.9C19.8289 9.00133 19.4929 10.8027 19.4929 13.304C19.4929 15.8053 19.8289 17.6067 20.5009 18.708C21.1916 19.7907 22.0689 20.332 23.1329 20.332C24.1969 20.332 25.0649 19.7907 25.7369 18.708C26.4276 17.6067 26.7729 15.8053 26.7729 13.304C26.7729 10.8027 26.4276 9.00133 25.7369 7.9C25.0649 6.79867 24.1969 6.248 23.1329 6.248ZM44.3248 5.772V17.476C44.3248 18.316 44.4741 18.9413 44.7728 19.352C45.0901 19.744 45.6501 19.94 46.4528 19.94V20.528C45.8741 20.472 45.2954 20.444 44.7168 20.444C44.1754 20.444 43.6528 20.472 43.1488 20.528C42.6634 20.584 42.2154 20.6867 41.8048 20.836V17.532C41.3381 18.7453 40.6754 19.6133 39.8168 20.136C38.9768 20.64 38.1088 20.892 37.2128 20.892C36.5594 20.892 35.9901 20.7987 35.5048 20.612C35.0194 20.4253 34.6181 20.164 34.3008 19.828C33.9461 19.4547 33.7034 18.9693 33.5728 18.372C33.4421 17.7747 33.3768 17.0373 33.3768 16.16V9.132C33.3768 8.292 33.2274 7.676 32.9288 7.284C32.6301 6.87333 32.0701 6.668 31.2488 6.668V6.08C31.8461 6.136 32.4248 6.164 32.9848 6.164C33.5261 6.164 34.0394 6.136 34.5248 6.08C35.0288 6.00533 35.4861 5.90267 35.8968 5.772V16.776C35.8968 17.3547 35.9341 17.8867 36.0088 18.372C36.0834 18.8573 36.2701 19.2493 36.5688 19.548C36.8674 19.8467 37.3528 19.996 38.0248 19.996C38.7528 19.996 39.3968 19.772 39.9568 19.324C40.5354 18.876 40.9834 18.2693 41.3008 17.504C41.6368 16.7387 41.8048 15.88 41.8048 14.928V9.132C41.8048 8.292 41.6554 7.676 41.3568 7.284C41.0581 6.87333 40.4981 6.668 39.6768 6.668V6.08C40.2741 6.136 40.8528 6.164 41.4128 6.164C41.9541 6.164 42.4674 6.136 42.9528 6.08C43.4568 6.00533 43.9141 5.90267 44.3248 5.772ZM57.2903 5.688C57.9996 5.688 58.5876 5.78133 59.0543 5.968C59.5396 6.15467 59.941 6.416 60.2583 6.752C60.613 7.12533 60.865 7.592 61.0143 8.152C61.1636 8.712 61.2383 9.468 61.2383 10.42V17.896C61.2383 18.68 61.397 19.212 61.7143 19.492C62.0503 19.772 62.601 19.912 63.3663 19.912V20.5C63.049 20.4813 62.5636 20.4627 61.9103 20.444C61.257 20.4067 60.6223 20.388 60.0063 20.388C59.3903 20.388 58.7836 20.4067 58.1863 20.444C57.6076 20.4627 57.169 20.4813 56.8703 20.5V19.912C57.5423 19.912 58.0183 19.772 58.2983 19.492C58.5783 19.212 58.7183 18.68 58.7183 17.896V9.804C58.7183 9.22533 58.6716 8.69333 58.5783 8.208C58.485 7.72267 58.2703 7.33067 57.9343 7.032C57.617 6.73333 57.1223 6.584 56.4503 6.584C55.6663 6.584 54.9756 6.808 54.3783 7.256C53.7996 7.704 53.3423 8.32 53.0063 9.104C52.689 9.86933 52.5303 10.728 52.5303 11.68V17.896C52.5303 18.68 52.6703 19.212 52.9503 19.492C53.2303 19.772 53.7063 19.912 54.3783 19.912V20.5C54.0796 20.4813 53.6316 20.4627 53.0343 20.444C52.4556 20.4067 51.8583 20.388 51.2423 20.388C50.6263 20.388 49.9916 20.4067 49.3383 20.444C48.685 20.4627 48.1996 20.4813 47.8823 20.5V19.912C48.6476 19.912 49.189 19.772 49.5063 19.492C49.8423 19.212 50.0103 18.68 50.0103 17.896V9.132C50.0103 8.292 49.861 7.676 49.5623 7.284C49.2636 6.87333 48.7036 6.668 47.8823 6.668V6.08C48.4796 6.136 49.0583 6.164 49.6183 6.164C50.1596 6.164 50.673 6.136 51.1583 6.08C51.6623 6.00533 52.1196 5.90267 52.5303 5.772V9.076C53.0156 7.80667 53.6876 6.92933 54.5463 6.444C55.4236 5.94 56.3383 5.688 57.2903 5.688ZM69.4679 25.764C68.4786 25.764 67.5452 25.6613 66.6679 25.456C65.7906 25.2507 65.0812 24.924 64.5399 24.476C64.0172 24.0467 63.7559 23.496 63.7559 22.824C63.7559 22.1707 64.0172 21.6107 64.5399 21.144C65.0626 20.6773 65.7719 20.3227 66.6679 20.08L66.8359 20.528C66.4252 20.6587 66.0986 20.92 65.8559 21.312C65.6132 21.704 65.4919 22.1427 65.4919 22.628C65.4919 23.4867 65.8839 24.14 66.6679 24.588C67.4706 25.0547 68.5066 25.288 69.7759 25.288C70.6159 25.288 71.4372 25.176 72.2399 24.952C73.0426 24.7467 73.7052 24.392 74.2279 23.888C74.7506 23.384 75.0119 22.7213 75.0119 21.9C75.0119 21.284 74.7879 20.78 74.3399 20.388C73.9106 19.9773 73.0519 19.772 71.7639 19.772H69.6919C69.0946 19.772 68.5159 19.7253 67.9559 19.632C67.3959 19.5387 66.9386 19.3427 66.5839 19.044C66.2292 18.7453 66.0519 18.288 66.0519 17.672C66.0519 17.0373 66.3132 16.4307 66.8359 15.852C67.3586 15.2547 68.3199 14.648 69.7199 14.032L70.0559 14.284C69.4212 14.62 68.8706 14.9653 68.4039 15.32C67.9372 15.656 67.7039 16.0573 67.7039 16.524C67.7039 17.1213 68.1519 17.42 69.0479 17.42H72.5479C73.3319 17.42 74.0506 17.532 74.7039 17.756C75.3759 17.98 75.9172 18.3347 76.3279 18.82C76.7386 19.3053 76.9439 19.94 76.9439 20.724C76.9439 21.6013 76.6639 22.4227 76.1039 23.188C75.5439 23.9533 74.7039 24.5693 73.5839 25.036C72.4826 25.5213 71.1106 25.764 69.4679 25.764ZM69.6079 14.536C68.6932 14.536 67.8626 14.3867 67.1159 14.088C66.3692 13.7707 65.7812 13.2853 65.3519 12.632C64.9226 11.9787 64.7079 11.1387 64.7079 10.112C64.7079 9.08533 64.9226 8.24533 65.3519 7.592C65.7812 6.93867 66.3692 6.46267 67.1159 6.164C67.8626 5.84667 68.6932 5.688 69.6079 5.688C70.5412 5.688 71.3719 5.84667 72.0999 6.164C72.8466 6.46267 73.4346 6.93867 73.8639 7.592C74.2932 8.24533 74.5079 9.08533 74.5079 10.112C74.5079 11.1387 74.2932 11.9787 73.8639 12.632C73.4346 13.2853 72.8466 13.7707 72.0999 14.088C71.3719 14.3867 70.5412 14.536 69.6079 14.536ZM69.6079 14.032C70.3172 14.032 70.8679 13.752 71.2599 13.192C71.6706 12.632 71.8759 11.6053 71.8759 10.112C71.8759 8.61867 71.6706 7.592 71.2599 7.032C70.8679 6.472 70.3172 6.192 69.6079 6.192C68.9172 6.192 68.3666 6.472 67.9559 7.032C67.5452 7.592 67.3399 8.61867 67.3399 10.112C67.3399 11.6053 67.5452 12.632 67.9559 13.192C68.3666 13.752 68.9172 14.032 69.6079 14.032ZM73.6399 8.012L73.1359 7.816C73.3972 7.18133 73.8452 6.62133 74.4799 6.136C75.1146 5.65067 75.7772 5.408 76.4679 5.408C76.9532 5.408 77.3452 5.548 77.6439 5.828C77.9426 6.08933 78.0919 6.49067 78.0919 7.032C78.0919 7.61067 77.9332 8.02133 77.6159 8.264C77.3172 8.488 77.0092 8.6 76.6919 8.6C76.4119 8.6 76.1506 8.50667 75.9079 8.32C75.6652 8.11467 75.5252 7.79733 75.4879 7.368C75.4506 6.93867 75.5812 6.388 75.8799 5.716L76.2439 5.8C75.4599 6.09867 74.8999 6.416 74.5639 6.752C74.2279 7.06933 73.9199 7.48933 73.6399 8.012ZM85.6394 5.688C87.2821 5.688 88.5608 6.192 89.4754 7.2C90.4088 8.18933 90.8754 9.73867 90.8754 11.848H80.9914L80.9634 11.316H88.1874C88.2248 10.4013 88.1501 9.56133 87.9634 8.796C87.7768 8.012 87.4781 7.38667 87.0674 6.92C86.6754 6.45333 86.1621 6.22 85.5274 6.22C84.6688 6.22 83.9034 6.64933 83.2314 7.508C82.5781 8.36667 82.1861 9.72933 82.0554 11.596L82.1394 11.708C82.1021 11.988 82.0741 12.296 82.0554 12.632C82.0368 12.968 82.0274 13.304 82.0274 13.64C82.0274 14.9093 82.2328 16.0013 82.6434 16.916C83.0541 17.8307 83.5861 18.5307 84.2394 19.016C84.9114 19.4827 85.6021 19.716 86.3114 19.716C86.8714 19.716 87.4034 19.632 87.9074 19.464C88.4114 19.2773 88.8781 18.9787 89.3074 18.568C89.7368 18.1573 90.1101 17.6067 90.4274 16.916L90.9874 17.14C90.7821 17.756 90.4461 18.3533 89.9794 18.932C89.5128 19.5107 88.9248 19.9867 88.2154 20.36C87.5061 20.7147 86.6848 20.892 85.7514 20.892C84.4074 20.892 83.2501 20.584 82.2794 19.968C81.3274 19.352 80.5901 18.5027 80.0674 17.42C79.5634 16.3187 79.3114 15.0587 79.3114 13.64C79.3114 11.9973 79.5728 10.588 80.0954 9.412C80.6181 8.21733 81.3554 7.30267 82.3074 6.668C83.2594 6.01467 84.3701 5.688 85.6394 5.688ZM95.7155 17.308C96.2008 17.308 96.6208 17.4853 96.9755 17.84C97.3302 18.1947 97.5075 18.6147 97.5075 19.1C97.5075 19.5853 97.3302 20.0053 96.9755 20.36C96.6208 20.7147 96.2008 20.892 95.7155 20.892C95.2302 20.892 94.8102 20.7147 94.4555 20.36C94.1008 20.0053 93.9235 19.5853 93.9235 19.1C93.9235 18.6147 94.1008 18.1947 94.4555 17.84C94.8102 17.4853 95.2302 17.308 95.7155 17.308Z"
     fill="#DFE0E0"
     id="path1"
     style="fill:#ffffff;fill-opacity:1" />
  <path
     style="fill:#ffffff;fill-opacity:1;stroke-width:0.0811258"
     d="m 0.20280788,20.230074 c 6.89e-6,-0.220116 0.15663096,-0.310175 0.54361292,-0.312576 0.4223485,-0.0026 1.0296944,-0.194158 1.2555509,-0.39596 0.4711621,-0.420983 0.4698315,-0.395681 0.4698315,-8.934617 0,-8.5317935 9.316e-4,-8.5139908 -0.467417,-8.9324603 C 1.769866,1.444917 1.3537361,1.3162485 0.58816225,1.2165604 0.23643718,1.170761 0.20281457,1.1473509 0.20281457,0.94825766 V 0.73013245 H 3.7317881 7.2607616 v 0.21941996 c 0,0.19156359 -0.038622,0.22506469 -0.3042219,0.26388269 C 5.4037094,1.4403848 5.222399,1.590286 5.0645686,2.7776516 4.9331522,3.7663042 5.0042348,18.563723 5.1423942,18.978763 c 0.1489448,0.44744 0.5035297,0.752711 0.9662056,0.831832 0.2098065,0.03588 1.294132,0.06378 2.4096121,0.062 1.6681751,-0.0027 2.1217381,-0.02841 2.5554631,-0.145054 1.77399,-0.477099 2.39209,-1.393624 2.799674,-4.151379 0.06595,-0.446192 0.120115,-0.838638 0.120378,-0.872103 2.63e-4,-0.03346 0.119125,-0.06086 0.264137,-0.06088 l 0.263659,-4e-5 v 2.048467 c 0,1.126657 0.02921,2.431787 0.0649,2.900288 l 0.0649,0.851822 H 7.4270655 0.20280119 Z"
     id="path2" />
  <path
     style="fill:#ffffff;fill-opacity:1;stroke-width:0.0811258"
     d="m 22.390728,20.80515 c -2.508604,-0.26457 -4.340413,-1.726786 -5.102797,-4.073236 -0.56961,-1.753137 -0.606651,-4.783772 -0.08083,-6.613478 0.747918,-2.6025444 2.747231,-4.187775 5.514713,-4.3725491 1.7627,-0.1176887 3.430812,0.4279534 4.595678,1.503253 1.581111,1.4595414 2.295193,3.8872381 2.07773,7.0637601 -0.154194,2.252329 -0.856743,3.934797 -2.120942,5.079247 -1.164154,1.053879 -3.067351,1.604549 -4.883552,1.413003 z m 1.22227,-0.490154 c 1.6182,-0.296328 2.6791,-1.847855 3.046161,-4.454897 0.14265,-1.013168 0.14265,-4.097758 0,-5.110927 C 26.430199,9.1229891 25.972578,7.9960214 25.204008,7.1656222 24.581922,6.4934916 24.050077,6.2553781 23.15998,6.2504864 c -0.620783,-0.00341 -0.745877,0.023198 -1.230817,0.2618175 -1.285256,0.6324227 -2.038608,2.045172 -2.345844,4.3991201 -0.129624,0.993144 -0.129624,3.79328 0,4.786424 0.138832,1.063687 0.447332,2.198169 0.758461,2.789176 0.498906,0.947698 1.375276,1.653302 2.273643,1.83061 0.481396,0.09501 0.464069,0.09506 0.997575,-0.0026 z"
     id="path3" />
  <path
     style="fill:#ffffff;fill-opacity:1;stroke-width:0.0811258"
     d="m 36.790563,20.836989 c -1.363312,-0.12878 -2.418594,-0.740254 -2.892909,-1.67627 -0.4199,-0.828632 -0.447986,-1.182467 -0.503473,-6.342838 C 33.344159,8.165695 33.337892,8.0212185 33.170729,7.6663907 32.925192,7.1452049 32.609284,6.8839071 32.047937,6.7376949 31.782003,6.6684279 31.499078,6.611755 31.419214,6.611755 c -0.106777,0 -0.145207,-0.063467 -0.145207,-0.2398074 V 6.1321402 l 1.074917,0.048252 c 1.112672,0.049947 2.357123,-0.050731 3.122402,-0.2526084 l 0.421245,-0.1111221 0.02586,6.3400133 c 0.02833,6.946691 0.0083,6.66831 0.522162,7.268605 0.388312,0.453655 0.819617,0.595485 1.703842,0.56029 0.614065,-0.02444 0.797282,-0.06721 1.256059,-0.29321 1.005854,-0.495495 1.839829,-1.624561 2.231435,-3.021002 0.133991,-0.477805 0.147876,-0.904385 0.147876,-4.543047 0,-3.6456609 -0.01322,-4.0499684 -0.14341,-4.387278 C 41.393676,7.1122058 40.91434,6.7728594 40.09644,6.650827 39.748708,6.5989446 39.711092,6.5724539 39.711087,6.3794476 l -5e-6,-0.2138847 1.60224,-0.00433 c 1.200262,-0.00324 1.75489,-0.038846 2.210685,-0.1419038 0.334644,-0.075665 0.633946,-0.1376029 0.665116,-0.1376394 0.03117,-3.65e-5 0.06898,2.8018169 0.08403,6.2263413 0.02484,5.65349 0.04034,6.265243 0.168424,6.648471 0.255808,0.765372 0.662271,1.074248 1.577048,1.198425 0.392394,0.05327 0.425909,0.07477 0.425892,0.273299 l -1.9e-5,0.215484 -1.723905,0.0092 c -1.437538,0.0077 -1.821608,0.03562 -2.312068,0.16816 l -0.588162,0.158941 -0.0021,-1.628425 -0.0021,-1.628426 -0.304019,0.572579 c -0.647344,1.219178 -1.257968,1.830356 -2.292571,2.294648 -0.75756,0.339966 -1.707898,0.514694 -2.428942,0.446583 z"
     id="path4" />
  <path
     style="fill:#ffffff;fill-opacity:1;stroke-width:0.0811258"
     d="m 47.904801,20.219404 v -0.280799 l 0.520395,-0.04177 c 0.673111,-0.05403 1.151979,-0.314817 1.37927,-0.751137 0.16636,-0.319351 0.169044,-0.410157 0.169044,-5.719371 V 8.0314569 L 49.750173,7.5852649 C 49.627337,7.3398593 49.438189,7.0753766 49.329844,6.9975255 49.132574,6.8557781 48.323,6.611755 48.050009,6.611755 c -0.104327,0 -0.145205,-0.06281 -0.145199,-0.2230961 l 8e-6,-0.223096 1.683353,-0.00964 c 1.395104,-0.00799 1.791011,-0.037335 2.312077,-0.1713765 l 0.628725,-0.1617361 0.0026,1.6316413 0.0026,1.6316413 0.265426,-0.5301749 c 0.594242,-1.1869716 1.171939,-1.7875786 2.18805,-2.2748215 1.126429,-0.5401422 2.258013,-0.6853668 3.420924,-0.4390327 1.394542,0.2953994 2.247477,1.1091324 2.611069,2.4910613 0.114842,0.4364868 0.140978,1.2253238 0.182187,5.4988289 0.04805,4.983205 0.04833,4.989653 0.231737,5.332931 0.232723,0.43559 0.686913,0.677542 1.375661,0.732828 l 0.509423,0.04089 v 0.27929 0.279291 l -0.5476,-0.06078 c -0.707075,-0.07849 -4.879494,-0.07655 -5.43543,0.0025 l -0.425911,0.06058 v -0.291553 c 0,-0.289326 0.0027,-0.291553 0.347877,-0.291553 0.555313,0 1.034012,-0.289439 1.27464,-0.770696 l 0.202814,-0.405629 0.0253,-4.543046 C 58.788729,9.110701 58.742972,8.3018897 58.386525,7.5884078 57.973428,6.76153 57.105114,6.4087899 55.930359,6.5906251 54.447217,6.820194 53.304638,7.9383628 52.758687,9.6945364 52.570603,10.29955 52.569536,10.327221 52.569536,14.602649 c 0,4.025982 0.0096,4.318952 0.150607,4.602612 0.195951,0.39415 0.58929,0.630175 1.14594,0.687627 0.447471,0.04618 0.447659,0.04632 0.447659,0.326405 v 0.280204 l -0.425911,-0.06085 c -0.55047,-0.07864 -4.81428,-0.07778 -5.475993,0.0011 l -0.507037,0.06045 z"
     id="path5" />
  <path
     style="fill:#ffffff;fill-opacity:1;stroke-width:0.0143412"
     d="m 33.4392,16.047753 c 2.93e-4,-0.02366 0.0035,-0.03161 0.0071,-0.01765 0.0036,0.01395 0.0034,0.03331 -5.31e-4,0.04302 -0.0039,0.0097 -0.0069,-0.0017 -0.0066,-0.02537 z"
     id="path6" />
  <path
     style="fill:#ffffff;fill-opacity:1;stroke-width:0.0143412"
     d="m 19.009202,23.670078 c 0,-2.295302 0.0055,-4.173277 0.01212,-4.173277 0.0067,0 0.02426,0.01342 0.03911,0.02983 0.09674,0.106891 0.575972,0.435968 0.860453,0.590845 1.268536,0.690616 2.856866,0.936165 4.423228,0.683811 0.952623,-0.153476 1.915393,-0.550375 2.615289,-1.078145 1.022469,-0.771011 1.8242,-2.026258 2.188539,-3.426527 0.225197,-0.865503 0.323365,-1.662051 0.339969,-2.75856 0.02228,-1.471267 -0.130983,-2.645666 -0.481935,-3.6929358 -0.327022,-0.97586 -0.86512,-1.8692197 -1.520568,-2.5244759 -0.415522,-0.4154003 -0.815203,-0.701188 -1.354796,-0.968733 -0.679098,-0.3367159 -1.383648,-0.5375487 -2.219073,-0.63255 -0.280053,-0.031846 -1.214859,-0.036319 -1.48197,-0.00709 -0.847454,0.092733 -1.550062,0.2848896 -2.239472,0.6124753 -0.396776,0.1885353 -0.77634,0.4326604 -1.127115,0.7249287 l -0.05378,0.044809 V 3.7659443 0.43740525 H 42.650597 66.291992 V 3.5177197 6.5980343 l -0.153109,0.1213484 c -0.432763,0.342991 -0.805134,0.8119764 -1.030869,1.2983396 -0.313429,0.6753003 -0.455142,1.5797544 -0.393073,2.5086857 0.07852,1.175064 0.423782,2.006936 1.125305,2.711288 0.110427,0.110873 0.257245,0.245319 0.326261,0.29877 l 0.125485,0.09718 v 1.494311 1.49431 l -0.04995,0.118432 c -0.06402,0.151791 -0.128372,0.362066 -0.161,0.52605 -0.03999,0.200965 -0.03541,0.692861 0.0083,0.895922 0.04075,0.189155 0.07495,0.292166 0.146328,0.440814 l 0.05654,0.117736 -0.0037,0.733647 -0.0037,0.733646 -0.1219,0.0413 c -0.699253,0.2369 -1.323697,0.603707 -1.74245,1.023538 -0.340554,0.34143 -0.544926,0.712389 -0.634027,1.150832 -0.01972,0.09704 -0.02555,0.194571 -0.02554,0.426935 2e-5,0.262759 0.0043,0.320195 0.03336,0.450403 0.09353,0.41871 0.266693,0.736118 0.564718,1.035104 0.398252,0.399537 1.066755,0.776704 1.764501,0.995522 l 0.168508,0.05284 v 1.239181 1.239179 H 42.650597 19.009202 Z m 18.289155,-2.778446 c -0.04897,-0.0028 -0.132865,-0.0028 -0.186435,-4.6e-5 -0.05357,0.0028 -0.0135,0.0051 0.08904,0.0051 0.102539,2.4e-5 0.146369,-0.0022 0.0974,-0.005 z m -0.380258,-0.01416 c -0.02937,-0.0031 -0.081,-0.0031 -0.114729,-9.5e-5 -0.03373,0.003 -0.0097,0.0056 0.0534,0.0056 0.0631,5.2e-5 0.0907,-0.0024 0.06133,-0.0055 z m 0.630312,-4.2e-5 c -0.02976,-0.0031 -0.07493,-0.0031 -0.100388,1.16e-4 -0.02546,0.0032 -0.0011,0.0057 0.0541,0.0056 0.05521,-6.5e-5 0.07604,-0.0027 0.04629,-0.0058 z m -0.852782,-0.01397 c -0.01764,-0.0034 -0.04991,-0.0035 -0.07171,-1.96e-4 -0.0218,0.0033 -0.0074,0.0061 0.03207,0.0062 0.03944,1.07e-4 0.05727,-0.0026 0.03963,-0.006 z m 1.018025,-2.5e-5 c -0.01775,-0.0034 -0.04679,-0.0034 -0.06453,0 -0.01775,0.0034 -0.0032,0.0062 0.03227,0.0062 0.03549,0 0.05002,-0.0028 0.03227,-0.0062 z m -1.168804,-0.01411 c -0.0138,-0.0036 -0.03639,-0.0036 -0.05019,0 -0.0138,0.0036 -0.0025,0.0066 0.0251,0.0066 0.02761,0 0.0389,-0.003 0.0251,-0.0066 z m 0.68186,-7.5e-4 c -0.05682,-0.0027 -0.153628,-0.0027 -0.215117,-3.6e-5 -0.06149,0.0027 -0.015,0.0049 0.103318,0.0049 0.118315,2e-5 0.168625,-0.0022 0.111799,-0.0049 z m 0.608844,7.5e-4 c -0.0138,-0.0036 -0.03639,-0.0036 -0.05019,0 -0.0138,0.0036 -0.0025,0.0066 0.0251,0.0066 0.02761,0 0.0389,-0.003 0.0251,-0.0066 z m -1.39799,-0.01386 c -0.0097,-0.0039 -0.02907,-0.0042 -0.04302,-5.33e-4 -0.01395,0.0036 -0.006,0.0069 0.01765,0.0071 0.02366,2.91e-4 0.03508,-0.0027 0.02537,-0.0066 z m 0.40845,-8.67e-4 c -0.02169,-0.0033 -0.05718,-0.0033 -0.07888,0 -0.02169,0.0033 -0.0039,0.006 0.03944,0.006 0.04338,0 0.06113,-0.0027 0.03944,-0.006 z m 0.638182,-1.02e-4 c -0.02563,-0.0032 -0.06758,-0.0032 -0.09322,0 -0.02563,0.0032 -0.0047,0.0058 0.04661,0.0058 0.05127,0 0.07224,-0.0026 0.04661,-0.0058 z m 0.459189,9.69e-4 c -0.0097,-0.0039 -0.02907,-0.0042 -0.04302,-5.33e-4 -0.01395,0.0036 -0.006,0.0069 0.01765,0.0071 0.02366,2.91e-4 0.03508,-0.0027 0.02537,-0.0066 z m 3.914919,-0.01156 c 0.107027,-0.04472 0.516871,-0.155133 0.74927,-0.201856 0.362498,-0.07288 0.72143,-0.1135 1.376751,-0.155804 0.04733,-0.0031 -0.07529,-0.003 -0.272482,1.53e-4 -0.713159,0.01136 -0.896784,0.0385 -1.67433,0.2475 l -0.211532,0.05686 V 19.14137 c 0,-0.979715 -0.0052,-1.623955 -0.01306,-1.615764 -0.01284,0.01339 -0.202062,0.365188 -0.202062,0.375657 0,0.0029 0.0059,0.0017 0.01312,-0.0027 0.0072,-0.0045 0.01577,-1.42e-4 0.01902,0.0096 0.0032,0.0097 0.03768,-0.05831 0.07652,-0.15121 l 0.07062,-0.16891 0.0036,1.62844 c 0.002,0.895641 0.0061,1.628438 0.009,1.628438 0.0029,0 0.02793,-0.0094 0.05553,-0.02096 z m -5.521128,-0.0028 c -0.0097,-0.0039 -0.02907,-0.0042 -0.04302,-5.32e-4 -0.01395,0.0036 -0.006,0.0069 0.01765,0.0071 0.02366,2.91e-4 0.03508,-0.0027 0.02537,-0.0066 z m 0.351086,-4.79e-4 c -0.0138,-0.0036 -0.03639,-0.0036 -0.05019,0 -0.0138,0.0036 -0.0025,0.0066 0.0251,0.0066 0.02761,0 0.0389,-0.003 0.0251,-0.0066 z m 1.021807,-0.0045 c 0.04852,-0.0092 0.03606,-0.0103 -0.05019,-0.0044 -0.0631,0.0043 -0.117418,0.01034 -0.120705,0.01332 -0.01066,0.0097 0.104583,0.0036 0.170899,-0.009 z m 0.319363,0.005 c -0.0097,-0.0039 -0.02907,-0.0042 -0.04302,-5.32e-4 -0.01395,0.0036 -0.006,0.0069 0.01765,0.0071 0.02366,2.91e-4 0.03508,-0.0027 0.02537,-0.0066 z m -1.778576,-0.01443 c -0.0099,-0.004 -0.02599,-0.004 -0.03585,0 -0.0099,0.004 -0.0018,0.0072 0.01793,0.0072 0.01972,0 0.02779,-0.0033 0.01793,-0.0072 z m 0.322676,-3.87e-4 c -0.0138,-0.0036 -0.03639,-0.0036 -0.05019,0 -0.0138,0.0036 -0.0025,0.0066 0.0251,0.0066 0.02761,0 0.0389,-0.003 0.0251,-0.0066 z m 1.527334,3.87e-4 c -0.0099,-0.004 -0.02599,-0.004 -0.03585,0 -0.0099,0.004 -0.0018,0.0072 0.01793,0.0072 0.01972,0 0.02779,-0.0033 0.01793,-0.0072 z m -1.929184,-0.01351 c -0.0048,-0.0048 -0.01713,-0.0053 -0.02749,-0.0011 -0.01144,0.0046 -0.008,0.008 0.0087,0.0087 0.01512,6.22e-4 0.02359,-0.0028 0.01882,-0.0075 z m 0.308905,-7.41e-4 c -0.0097,-0.0039 -0.02907,-0.0042 -0.04302,-5.32e-4 -0.01395,0.0036 -0.006,0.0069 0.01765,0.0071 0.02366,2.91e-4 0.03508,-0.0027 0.02537,-0.0066 z m 1.458941,-0.01107 c 0.05127,-0.01052 0.08031,-0.0195 0.06453,-0.01996 -0.01578,-4.56e-4 -0.07386,0.0077 -0.129071,0.01819 -0.05521,0.01046 -0.08425,0.01945 -0.06453,0.01996 0.01972,5.16e-4 0.0778,-0.0077 0.129071,-0.0182 z m 0.233043,0.01097 c -0.0099,-0.004 -0.02599,-0.004 -0.03585,0 -0.0099,0.004 -0.0018,0.0072 0.01793,0.0072 0.01972,0 0.02779,-0.0033 0.01793,-0.0072 z m -2.072595,-0.01351 c -0.0048,-0.0048 -0.01713,-0.0053 -0.02749,-0.0011 -0.01144,0.0046 -0.008,0.008 0.0087,0.0087 0.01512,6.22e-4 0.02359,-0.0028 0.01882,-0.0075 z m 0.279951,-8.33e-4 c -0.0099,-0.004 -0.02599,-0.004 -0.03585,0 -0.0099,0.004 -0.0018,0.0072 0.01793,0.0072 0.01972,0 0.02779,-0.0033 0.01793,-0.0072 z m 1.856881,8.33e-4 c -0.0048,-0.0048 -0.01714,-0.0053 -0.02749,-0.0011 -0.01144,0.0046 -0.008,0.008 0.0087,0.0087 0.01512,6.22e-4 0.02359,-0.0028 0.01882,-0.0075 z m -2.194197,-0.01434 c -0.0048,-0.0048 -0.01713,-0.0053 -0.02749,-0.0011 -0.01144,0.0046 -0.008,0.008 0.0087,0.0087 0.01512,6.22e-4 0.02359,-0.0028 0.01882,-0.0075 z m 0.26561,-8.33e-4 c -0.0099,-0.004 -0.02599,-0.004 -0.03585,0 -0.0099,0.004 -0.0018,0.0072 0.01793,0.0072 0.01972,0 0.02779,-0.0033 0.01793,-0.0072 z m 2.000293,8.33e-4 c -0.0048,-0.0048 -0.01714,-0.0053 -0.02749,-0.0011 -0.01144,0.0046 -0.008,0.008 0.0087,0.0087 0.01512,6.22e-4 0.02359,-0.0028 0.01882,-0.0075 z m -2.071999,-0.01517 c -0.0099,-0.004 -0.02599,-0.004 -0.03585,0 -0.0099,0.004 -0.0018,0.0072 0.01793,0.0072 0.01972,0 0.02779,-0.0033 0.01793,-0.0072 z m 1.850009,0 c -0.0099,-0.004 -0.02599,-0.004 -0.03585,0 -0.0099,0.004 -0.0018,0.0072 0.01793,0.0072 0.01972,0 0.02779,-0.0033 0.01793,-0.0072 z m 0.279355,8.33e-4 c -0.0048,-0.0048 -0.01713,-0.0053 -0.02749,-0.0011 -0.01144,0.0046 -0.008,0.008 0.0087,0.0087 0.01512,6.23e-4 0.02359,-0.0028 0.01882,-0.0075 z m -2.194197,-0.01434 c -0.0048,-0.0048 -0.01713,-0.0053 -0.02749,-0.0011 -0.01144,0.0046 -0.008,0.008 0.0087,0.0087 0.01512,6.23e-4 0.02359,-0.0028 0.01882,-0.0075 z m 2.025986,-0.0057 c 0.02839,-0.0091 0.02988,-0.01148 0.0072,-0.01148 -0.01577,0 -0.04482,0.0052 -0.06453,0.01148 -0.02839,0.0091 -0.02988,0.01148 -0.0072,0.01148 0.01577,0 0.04482,-0.0052 0.06453,-0.01148 z m -2.32715,-0.0087 c -0.0048,-0.0048 -0.01713,-0.0053 -0.02749,-0.0011 -0.01144,0.0046 -0.008,0.008 0.0087,0.0087 0.01512,6.23e-4 0.02359,-0.0028 0.01882,-0.0075 z m 0.229458,0 c -0.0048,-0.0048 -0.01713,-0.0053 -0.02749,-0.0011 -0.01144,0.0046 -0.008,0.008 0.0087,0.0087 0.01512,6.23e-4 0.02359,-0.0028 0.01882,-0.0075 z m -0.05736,-0.01434 c -0.0048,-0.0048 -0.01713,-0.0053 -0.02749,-0.0011 -0.01144,0.0046 -0.008,0.008 0.0087,0.0087 0.01512,6.22e-4 0.02359,-0.0028 0.01882,-0.0075 z m 2.414338,-0.04052 c 0.365734,-0.100995 0.695519,-0.22812 1.017082,-0.392067 0.178625,-0.09107 0.403002,-0.221769 0.394801,-0.22997 -0.0032,-0.0032 -0.06069,0.02734 -0.12777,0.06786 -0.372794,0.225177 -0.868916,0.430672 -1.349788,0.559081 -0.08676,0.02317 -0.147559,0.04261 -0.135101,0.04321 0.01246,5.93e-4 0.102809,-0.02106 0.200776,-0.04811 z m 0.06668,0.04052 c -0.0048,-0.0048 -0.01713,-0.0053 -0.02749,-0.0011 -0.01144,0.0046 -0.008,0.008 0.0087,0.0087 0.01512,6.22e-4 0.02359,-0.0028 0.01882,-0.0075 z m -2.753502,-0.01434 c -0.0048,-0.0048 -0.01713,-0.0053 -0.02749,-0.0011 -0.01144,0.0046 -0.008,0.008 0.0087,0.0087 0.01512,6.22e-4 0.02359,-0.0028 0.01882,-0.0075 z m 2.896914,-0.02868 c -0.0048,-0.0048 -0.01713,-0.0053 -0.02749,-0.0011 -0.01144,0.0046 -0.008,0.008 0.0087,0.0087 0.01512,6.22e-4 0.02359,-0.0028 0.01882,-0.0075 z m 7.791131,-0.43377 V 19.93132 l -0.225873,-0.0088 c -0.581746,-0.02273 -0.995153,-0.157998 -1.311789,-0.429226 -0.269585,-0.230925 -0.450256,-0.663885 -0.552475,-1.32396 -0.02249,-0.145197 -0.0246,-0.61041 -0.02852,-6.278539 l -0.0042,-6.1217226 -0.03207,0.00681 c -0.01764,0.00375 -0.128009,0.033432 -0.245267,0.065971 -0.684975,0.1900774 -1.293178,0.2768251 -2.160265,0.3081179 -0.05916,0.00213 -0.01721,0.00507 0.09322,0.00653 0.249672,0.0033 0.706649,-0.018655 0.98562,-0.047346 0.255773,-0.026305 0.415627,-0.054077 0.862615,-0.1498672 0.188327,-0.040359 0.34449,-0.071302 0.347029,-0.068763 0.01011,0.010113 0.03564,1.1533277 0.04892,2.1907391 0.0077,0.6034041 0.02066,2.3426278 0.02876,3.8649418 0.02745,5.161545 0.04647,6.171924 0.124471,6.611273 0.05629,0.317071 0.229768,0.680033 0.426592,0.892557 0.257673,0.278232 0.583757,0.415459 1.220207,0.51351 0.259784,0.04002 0.352564,0.06993 0.380832,0.122744 0.0097,0.01807 0.0208,0.105802 0.02474,0.194954 l 0.0072,0.162097 -0.80152,0.0023 c -0.69106,0.002 -0.751121,0.0038 -0.43582,0.01263 0.350368,0.0099 0.752476,0.03244 0.99671,0.056 0.0631,0.0061 0.145383,0.01197 0.18285,0.01307 l 0.06812,0.002 z M 48.889,20.465047 c 0.331281,-0.01149 0.744306,-0.02907 0.917834,-0.03908 0.424675,-0.02449 2.433024,-0.02451 2.818037,-2e-5 0.153809,0.0098 0.52166,0.02717 0.817446,0.03863 0.295786,0.01146 0.629889,0.02522 0.742452,0.03057 l 0.204659,0.0097 -0.0039,-0.299669 -0.0039,-0.29967 -0.222288,-0.0097 c -0.486759,-0.02134 -0.855961,-0.130944 -1.116729,-0.331529 -0.180128,-0.138557 -0.309709,-0.357194 -0.396963,-0.669779 -0.03181,-0.113961 -0.03347,-0.116763 -0.0255,-0.04302 0.04098,0.378922 0.256,0.686147 0.606182,0.866124 0.208261,0.107036 0.34805,0.143561 0.741363,0.193711 0.231481,0.02951 0.299391,0.05289 0.32133,0.11059 0.0075,0.01985 0.01372,0.132482 0.01372,0.250283 0,0.177212 -0.0036,0.214184 -0.02073,0.214184 -0.0114,0 -0.109814,-0.01309 -0.218702,-0.0291 -0.288649,-0.04243 -0.528516,-0.05509 -1.345269,-0.07103 -0.932157,-0.01819 -2.056469,-0.01821 -3.033155,-5.3e-5 -0.844802,0.01571 -1.140591,0.03013 -1.475875,0.07195 -0.122954,0.01534 -0.241299,0.02796 -0.26299,0.02806 l -0.03944,1.69e-4 V 20.215556 19.94477 l 0.125485,-0.0096 c 0.684417,-0.05249 0.917135,-0.09924 1.201072,-0.241292 0.149777,-0.07493 0.22389,-0.126265 0.335069,-0.232084 0.15948,-0.15179 0.277847,-0.3444 0.322754,-0.52519 0.03743,-0.150704 0.0255,-0.175119 -0.01952,-0.03993 -0.162834,0.489009 -0.466938,0.759906 -1.011665,0.901195 -0.226337,0.05871 -0.436347,0.08718 -0.72374,0.09812 l -0.25097,0.0096 -0.0039,0.299769 -0.0039,0.299768 0.204659,-0.0096 c 0.112563,-0.0053 0.475707,-0.01896 0.806988,-0.03045 z m 8.898687,-1.6e-4 c 0.295786,-0.01151 0.670091,-0.02906 0.831787,-0.039 0.397583,-0.02446 2.385644,-0.02444 2.825208,3e-5 0.177472,0.0099 0.590497,0.02734 0.917834,0.0388 0.327337,0.01146 0.68712,0.02518 0.799519,0.03048 l 0.204362,0.0096 v -0.301106 -0.301106 l -0.261726,-0.0086 c -0.65796,-0.02168 -1.169433,-0.18621 -1.437701,-0.46247 -0.155232,-0.159855 -0.274164,-0.403934 -0.342053,-0.701978 -0.03778,-0.165856 -0.04861,-0.143991 -0.02258,0.04557 0.02986,0.217415 0.119593,0.419922 0.265388,0.598899 0.21337,0.261934 0.589979,0.443948 1.052935,0.508879 0.09902,0.01389 0.604591,0.05848 0.663037,0.05848 0.02334,0 0.02534,0.02163 0.02534,0.274329 v 0.274331 l -0.06812,-0.0088 c -0.246751,-0.03203 -0.693359,-0.06851 -0.993125,-0.08112 -0.581484,-0.02446 -2.833143,-0.03396 -3.708304,-0.01565 -0.861626,0.01803 -1.078509,0.02956 -1.374938,0.07313 -0.107732,0.01583 -0.20843,0.02879 -0.223772,0.02879 -0.0263,0 -0.02788,-0.0113 -0.02755,-0.197191 1.88e-4,-0.108455 0.0062,-0.222299 0.01329,-0.252988 0.02238,-0.09646 0.03175,-0.100038 0.291249,-0.111254 0.322594,-0.01394 0.496716,-0.05363 0.713852,-0.162708 0.08866,-0.04454 0.241504,-0.149699 0.272729,-0.187645 0.01142,-0.01387 -0.01183,-0.0019 -0.05166,0.02667 -0.242702,0.173919 -0.611873,0.276236 -1.056944,0.292937 l -0.225873,0.0085 v 0.301109 0.301108 l 0.19002,-0.0095 c 0.104512,-0.0052 0.432028,-0.01894 0.727814,-0.03044 z m -13.441546,-0.01589 c -0.0048,-0.0048 -0.01714,-0.0053 -0.02749,-0.0011 -0.01144,0.0046 -0.008,0.008 0.0087,0.0087 0.01512,6.23e-4 0.02359,-0.0028 0.01882,-0.0075 z m -9.138604,-0.0487 c -0.0049,-0.0079 -0.01532,-0.01434 -0.0232,-0.01434 -0.0079,0 -0.01035,0.0065 -0.0055,0.01434 0.0049,0.0079 0.01532,0.01434 0.0232,0.01434 0.0079,0 0.01035,-0.0065 0.0055,-0.01434 z m -0.164923,-0.0063 c 0,-0.0035 -0.0065,-0.01031 -0.01434,-0.01519 -0.0079,-0.0049 -0.01434,-0.002 -0.01434,0.0063 0,0.0084 0.0065,0.01519 0.01434,0.01519 0.0079,0 0.01434,-0.0028 0.01434,-0.0063 z m -0.143411,-0.08605 c 0,-0.0035 -0.0065,-0.01031 -0.01434,-0.01519 -0.0079,-0.0049 -0.01434,-0.002 -0.01434,0.0063 0,0.0084 0.0065,0.01519 0.01434,0.01519 0.0079,0 0.01434,-0.0028 0.01434,-0.0063 z m 0.114729,-0.008 c 0,-0.0079 -0.0068,-0.01434 -0.01519,-0.01434 -0.0084,0 -0.0112,0.0065 -0.0063,0.01434 0.0049,0.0079 0.01171,0.01434 0.01519,0.01434 0.0035,0 0.0063,-0.0065 0.0063,-0.01434 z m 4.517464,0 c 0,-0.0079 -0.0028,-0.01434 -0.0063,-0.01434 -0.0035,0 -0.01031,0.0065 -0.01519,0.01434 -0.0049,0.0079 -0.002,0.01434 0.0063,0.01434 0.0084,0 0.01519,-0.0065 0.01519,-0.01434 z m -4.71824,-0.04935 c 0,-0.0035 -0.0065,-0.01031 -0.01434,-0.01519 -0.0079,-0.0049 -0.01434,-0.002 -0.01434,0.0063 0,0.0084 0.0065,0.01519 0.01434,0.01519 0.0079,0 0.01434,-0.0028 0.01434,-0.0063 z m 0.08605,-0.02236 c 0,-0.0079 -0.0068,-0.01434 -0.01519,-0.01434 -0.0084,0 -0.0112,0.0065 -0.0063,0.01434 0.0049,0.0079 0.01171,0.01434 0.01519,0.01434 0.0035,0 0.0063,-0.0065 0.0063,-0.01434 z m -0.129071,-0.0063 c 0,-0.0035 -0.0065,-0.01031 -0.01434,-0.01519 -0.0079,-0.0049 -0.01434,-0.002 -0.01434,0.0063 0,0.0084 0.0065,0.01519 0.01434,0.01519 0.0079,0 0.01434,-0.0028 0.01434,-0.0063 z m 4.919017,-0.008 c 0,-0.0079 -0.0028,-0.01434 -0.0063,-0.01434 -0.0035,0 -0.01031,0.0065 -0.01519,0.01434 -0.0049,0.0079 -0.002,0.01434 0.0063,0.01434 0.0084,0 0.01519,-0.0065 0.01519,-0.01434 z m 0.100388,-0.05737 c 0,-0.0079 -0.0028,-0.01434 -0.0063,-0.01434 -0.0035,0 -0.01031,0.0065 -0.01519,0.01434 -0.0049,0.0079 -0.002,0.01434 0.0063,0.01434 0.0084,0 0.01519,-0.0065 0.01519,-0.01434 z m -5.019405,-0.01434 c 0,-0.0079 -0.0068,-0.01434 -0.01519,-0.01434 -0.0084,0 -0.0112,0.0065 -0.0063,0.01434 0.0049,0.0079 0.01171,0.01434 0.01519,0.01434 0.0035,0 0.0063,-0.0065 0.0063,-0.01434 z m 5.09111,-0.02868 c 0,-0.0079 -0.0028,-0.01434 -0.0063,-0.01434 -0.0035,0 -0.01031,0.0065 -0.01519,0.01434 -0.0049,0.0079 -0.002,0.01434 0.0063,0.01434 0.0084,0 0.01519,-0.0065 0.01519,-0.01434 z m -5.277833,-0.0362 c -0.01,-0.01202 -0.02109,-0.01891 -0.0247,-0.01529 -0.0099,0.0099 0.01026,0.03715 0.02759,0.03715 0.0095,0 0.0084,-0.0082 -0.0029,-0.02186 z m 5.320857,0.0075 c 0,-0.0079 -0.0028,-0.01434 -0.0063,-0.01434 -0.0035,0 -0.01031,0.0065 -0.01519,0.01434 -0.0049,0.0079 -0.002,0.01434 0.0063,0.01434 0.0084,0 0.01519,-0.0065 0.01519,-0.01434 z m -5.248863,-0.02868 c 0,-0.0079 -0.0068,-0.01434 -0.01519,-0.01434 -0.0084,0 -0.0112,0.0065 -0.0063,0.01434 0.0049,0.0079 0.01171,0.01434 0.01519,0.01434 0.0035,0 0.0063,-0.0065 0.0063,-0.01434 z m 5.33491,-0.02868 c 0,-0.0079 -0.0028,-0.01434 -0.0063,-0.01434 -0.0035,0 -0.01031,0.0065 -0.01519,0.01434 -0.0049,0.0079 -0.002,0.01434 0.0063,0.01434 0.0084,0 0.01519,-0.0065 0.01519,-0.01434 z m -5.398856,-0.02773 c -0.0052,-0.0084 -0.01632,-0.01529 -0.0247,-0.01529 -0.0095,0 -0.0084,0.0082 0.0029,0.02186 0.01967,0.0237 0.03725,0.01841 0.02181,-0.0066 z m -0.115397,-0.01538 c -0.01432,-0.01582 -0.02915,-0.02566 -0.03295,-0.02186 -0.0096,0.0096 0.02613,0.05063 0.04418,0.05063 0.0081,0 0.0031,-0.01295 -0.01123,-0.02877 z m 5.557276,0.01443 c 0,-0.0079 -0.0028,-0.01434 -0.0063,-0.01434 -0.0035,0 -0.01031,0.0065 -0.01519,0.01434 -0.0049,0.0079 -0.002,0.01434 0.0063,0.01434 0.0084,0 0.01519,-0.0065 0.01519,-0.01434 z m -2.165514,-0.0149 c -0.851278,-0.03492 -1.316137,-0.295672 -1.633247,-0.916129 -0.07911,-0.154779 -0.144709,-0.337129 -0.186153,-0.517432 -0.03686,-0.160348 -0.03796,-0.103189 -0.0021,0.106807 0.05477,0.320341 0.119537,0.457989 0.330842,0.703082 0.379628,0.440328 0.638556,0.569504 1.261154,0.629167 0.02761,0.0026 0.146997,0.0048 0.265312,0.0048 l 0.215117,-6e-6 z m 0.520139,-0.0089 c -0.0097,-0.0039 -0.02907,-0.0042 -0.04302,-5.32e-4 -0.01395,0.0036 -0.006,0.0069 0.01765,0.0071 0.02366,2.92e-4 0.03508,-0.0027 0.02537,-0.0066 z m 0.293663,-0.0273 c 0.362085,-0.05376 0.844212,-0.275797 1.232369,-0.567544 0.735956,-0.553155 1.343119,-1.474273 1.673747,-2.539215 0.09917,-0.319436 0.1371,-0.537782 0.157702,-0.907911 l 0.0072,-0.12907 -0.02611,0.164923 c -0.08576,0.541614 -0.194023,0.942919 -0.376532,1.395737 -0.274047,0.67993 -0.564473,1.14466 -0.986361,1.578343 -0.551003,0.566409 -1.105904,0.876804 -1.785911,0.998988 -0.177723,0.03193 -0.101008,0.03618 0.103915,0.0057 z m 1.351712,-0.0063 c 0.01972,-0.01542 0.0294,-0.02804 0.02151,-0.02804 -0.0079,0 -0.03048,0.01262 -0.05019,0.02804 -0.01972,0.01542 -0.0294,0.02804 -0.02151,0.02804 0.0079,0 0.03048,-0.01262 0.05019,-0.02804 z M 34.4836,19.905897 c -0.01,-0.01202 -0.0248,-0.02186 -0.03295,-0.02186 -0.0081,0 -0.0031,0.01295 0.01123,0.02877 0.02966,0.03277 0.04943,0.02648 0.02172,-0.0069 z m 5.650127,0.02116 c 0,-0.0079 -0.0028,-0.01434 -0.0063,-0.01434 -0.0035,0 -0.01031,0.0065 -0.01519,0.01434 -0.0049,0.0079 -0.002,0.01434 0.0063,0.01434 0.0084,0 0.01519,-0.0065 0.01519,-0.01434 z m -0.02151,-0.04302 c 0.0049,-0.0079 0.0024,-0.01434 -0.0055,-0.01434 -0.0079,0 -0.01833,0.0065 -0.0232,0.01434 -0.0049,0.0079 -0.0024,0.01434 0.0055,0.01434 0.0079,0 0.01833,-0.0065 0.0232,-0.01434 z m 0.09322,-0.01434 c 0,-0.0079 -0.0028,-0.01434 -0.0063,-0.01434 -0.0035,0 -0.01031,0.0065 -0.01519,0.01434 -0.0049,0.0079 -0.002,0.01434 0.0063,0.01434 0.0084,0 0.01519,-0.0065 0.01519,-0.01434 z m -0.03585,-0.02868 c 0.0049,-0.0079 0.0024,-0.01434 -0.0055,-0.01434 -0.0079,0 -0.01833,0.0065 -0.0232,0.01434 -0.0049,0.0079 -0.0024,0.01434 0.0055,0.01434 0.0079,0 0.01833,-0.0065 0.0232,-0.01434 z m 0.107559,-0.02868 c 0,-0.0079 -0.0028,-0.01434 -0.0063,-0.01434 -0.0035,0 -0.01031,0.0065 -0.01519,0.01434 -0.0049,0.0079 -0.002,0.01434 0.0063,0.01434 0.0084,0 0.01519,-0.0065 0.01519,-0.01434 z m -6.016194,-0.04311 c -0.01432,-0.01582 -0.02915,-0.02566 -0.03295,-0.02186 -0.0096,0.0096 0.02613,0.05063 0.04418,0.05063 0.0081,0 0.0031,-0.01295 -0.01123,-0.02877 z m 5.980341,0.01443 c 0.0049,-0.0079 0.0024,-0.01434 -0.0055,-0.01434 -0.0079,0 -0.01833,0.0065 -0.0232,0.01434 -0.0049,0.0079 -0.0024,0.01434 0.0055,0.01434 0.0079,0 0.01833,-0.0065 0.0232,-0.01434 z m -5.93716,-0.05728 c -0.01432,-0.01582 -0.03261,-0.02877 -0.04065,-0.02877 -0.008,0 5.15e-4,0.01611 0.01901,0.0358 0.03946,0.042 0.05998,0.03534 0.02164,-0.007 z m 6.06682,0.0133 c 0.01544,-0.02498 -0.0021,-0.03026 -0.02181,-0.0066 -0.01131,0.01363 -0.0124,0.02186 -0.0029,0.02186 0.0084,0 0.01951,-0.0069 0.0247,-0.01529 z m -0.03644,-0.0349 c 0.01,-0.012 0.01151,-0.02151 0.0035,-0.02151 -0.0079,0 -0.02237,0.0097 -0.03219,0.02151 -0.01,0.012 -0.01151,0.02151 -0.0035,0.02151 0.0079,0 0.02237,-0.0097 0.0322,-0.02151 z m -6.152356,-0.02784 c 0,-0.0035 -0.0065,-0.01031 -0.01434,-0.01519 -0.0079,-0.0049 -0.01434,-0.002 -0.01434,0.0063 0,0.0084 0.0065,0.01519 0.01434,0.01519 0.0079,0 0.01434,-0.0028 0.01434,-0.0063 z m 0.02868,-0.05104 c 0,-0.0079 -0.0068,-0.01434 -0.01519,-0.01434 -0.0084,0 -0.0112,0.0065 -0.0063,0.01434 0.0049,0.0079 0.01171,0.01434 0.01519,0.01434 0.0035,0 0.0063,-0.0065 0.0063,-0.01434 z m -0.08605,-0.02067 c 0,-0.0035 -0.0065,-0.01031 -0.01434,-0.01519 -0.0079,-0.0049 -0.01434,-0.002 -0.01434,0.0063 0,0.0084 0.0065,0.01519 0.01434,0.01519 0.0079,0 0.01434,-0.0028 0.01434,-0.0063 z m 6.446429,-0.05113 c 0.03834,-0.04237 0.01782,-0.04903 -0.02164,-0.007 -0.0185,0.01969 -0.02705,0.0358 -0.01901,0.0358 0.008,0 0.02633,-0.01295 0.04066,-0.02877 z m -6.475111,0.0081 c 0,-0.0035 -0.0065,-0.01031 -0.01434,-0.01519 -0.0079,-0.0049 -0.01434,-0.002 -0.01434,0.0063 0,0.0084 0.0065,0.01519 0.01434,0.01519 0.0079,0 0.01434,-0.0028 0.01434,-0.0063 z m 6.424838,-0.02953 c 0.01,-0.012 0.01151,-0.02151 0.0035,-0.02151 -0.0079,0 -0.02237,0.0097 -0.0322,0.02151 -0.01,0.012 -0.01151,0.02151 -0.0035,0.02151 0.0079,0 0.02238,-0.0097 0.0322,-0.02151 z m -6.439179,-0.07888 c 0,-0.0079 -0.0068,-0.01434 -0.01519,-0.01434 -0.0084,0 -0.0112,0.0065 -0.0063,0.01434 0.0049,0.0079 0.01171,0.01434 0.01519,0.01434 0.0035,0 0.0063,-0.0065 0.0063,-0.01434 z m -0.02868,-0.04302 c 0,-0.0079 -0.0068,-0.01434 -0.01519,-0.01434 -0.0084,0 -0.0112,0.0065 -0.0063,0.01434 0.0049,0.0079 0.01171,0.01434 0.01519,0.01434 0.0035,0 0.0063,-0.0065 0.0063,-0.01434 z m -0.07171,-0.02067 c 0,-0.0035 -0.0065,-0.01031 -0.01434,-0.01519 -0.0079,-0.0049 -0.01434,-0.002 -0.01434,0.0063 0,0.0084 0.0065,0.01519 0.01434,0.01519 0.0079,0 0.01434,-0.0028 0.01434,-0.0063 z m 6.720132,-0.06169 c -0.0099,-0.0099 -0.03715,0.01026 -0.03715,0.02759 0,0.0095 0.0082,0.0084 0.02186,-0.0029 0.01202,-0.01 0.0189,-0.02109 0.0153,-0.0247 z m 0.04889,0.02499 c 0,-0.0079 -0.0028,-0.01434 -0.0063,-0.01434 -0.0035,0 -0.01031,0.0065 -0.01519,0.01434 -0.0049,0.0079 -0.002,0.01434 0.0063,0.01434 0.0084,0 0.01519,-0.0065 0.01519,-0.01434 z m -6.812049,-0.03501 c 0,-0.0035 -0.0065,-0.01031 -0.01434,-0.01519 -0.0079,-0.0049 -0.01434,-0.002 -0.01434,0.0063 0,0.0084 0.0065,0.01519 0.01434,0.01519 0.0079,0 0.01434,-0.0028 0.01434,-0.0063 z m 24.673029,-0.323522 0.132858,-0.265312 0.01718,-3.635483 c 0.01988,-4.207172 0.01048,-5.2207748 -0.05675,-6.1165025 C 58.682935,8.6880038 58.638617,8.3570885 58.596303,8.1684158 58.402231,7.3030827 57.87375,6.7598105 57.062578,6.591765 56.449802,6.4648202 55.644255,6.5697318 55.013749,6.8585966 53.999405,7.3233172 53.228737,8.2650461 52.791428,9.5741982 52.668442,9.9423696 52.620107,10.180537 52.603999,10.497726 l -0.008,0.157753 0.04163,-0.229459 c 0.184614,-1.0175697 0.519408,-1.7994265 1.068494,-2.4952968 0.149366,-0.1892966 0.497492,-0.53388 0.669669,-0.6628542 0.571615,-0.4281883 1.20396,-0.6457107 1.95628,-0.6729476 0.588481,-0.021305 1.090923,0.0867 1.422397,0.3057588 0.167152,0.110465 0.378843,0.3279837 0.499933,0.5136973 0.204003,0.3128743 0.293781,0.5855077 0.370902,1.1263221 0.07601,0.5329813 0.07306,0.3212891 0.07306,5.2483214 0,4.354124 -0.0014,4.605031 -0.02579,4.761264 -0.04583,0.292998 -0.1,0.479459 -0.196864,0.677594 -0.02411,0.04931 -0.03334,0.07675 -0.0205,0.06097 0.01283,-0.01578 0.08311,-0.148072 0.156186,-0.293993 z m -17.77821,0.250084 c -0.0048,-0.0048 -0.01647,0.0063 -0.02592,0.02475 -0.01642,0.03202 -0.01604,0.03241 0.0087,0.0087 0.01425,-0.01362 0.02199,-0.02869 0.01718,-0.03349 z m -0.04562,-0.01693 c -0.0099,-0.0099 -0.03715,0.01026 -0.03715,0.02759 0,0.0095 0.0082,0.0084 0.02186,-0.0029 0.01202,-0.01 0.0189,-0.02109 0.0153,-0.0247 z m 0.05606,-0.06106 c 0.0049,-0.0079 0.002,-0.01434 -0.0063,-0.01434 -0.0084,0 -0.01519,0.0065 -0.01519,0.01434 0,0.0079 0.0028,0.01434 0.0063,0.01434 0.0035,0 0.01031,-0.0065 0.01519,-0.01434 z m 0.104789,-0.06492 c -0.0044,-0.0044 -0.01243,0.0035 -0.01782,0.01769 -0.0078,0.02044 -0.0061,0.02209 0.008,0.008 0.0098,-0.0097 0.01421,-0.0213 0.0098,-0.02572 z m -0.06177,0.0076 c 0.0049,-0.0079 0.002,-0.01434 -0.0063,-0.01434 -0.0084,0 -0.01519,0.0065 -0.01519,0.01434 0,0.0079 0.0028,0.01434 0.0063,0.01434 0.0035,0 0.01031,-0.0065 0.01519,-0.01434 z m 0.04302,-0.05737 c 0.0049,-0.0079 0.002,-0.01434 -0.0063,-0.01434 -0.0084,0 -0.01519,0.0065 -0.01519,0.01434 0,0.0079 0.0028,0.01434 0.0063,0.01434 0.0035,0 0.01031,-0.0065 0.01519,-0.01434 z m 0.04302,-0.05736 c 0.0049,-0.0079 0.002,-0.01434 -0.0063,-0.01434 -0.0084,0 -0.01519,0.0065 -0.01519,0.01434 0,0.0079 0.0028,0.01434 0.0063,0.01434 0.0035,0 0.01031,-0.0065 0.01519,-0.01434 z m 0.0705,-0.0092 c 0.0076,-0.01968 0.0055,-0.02057 -0.01281,-0.0054 -0.02489,0.02065 -0.02748,0.02895 -0.009,0.02895 0.007,0 0.01687,-0.01059 0.02184,-0.02354 z m 0.0012,-0.09119 c 0.0049,-0.0079 0.002,-0.01434 -0.0063,-0.01434 -0.0084,0 -0.01519,0.0065 -0.01519,0.01434 0,0.0079 0.0028,0.01434 0.0063,0.01434 0.0035,0 0.01031,-0.0065 0.01519,-0.01434 z m 0.02868,-0.04302 c 0.0049,-0.0079 0.002,-0.01434 -0.0063,-0.01434 -0.0084,0 -0.01519,0.0065 -0.01519,0.01434 0,0.0079 0.0028,0.01434 0.0063,0.01434 0.0035,0 0.01031,-0.0065 0.01519,-0.01434 z m 0.02868,-0.04302 c 0.0049,-0.0079 0.002,-0.01434 -0.0063,-0.01434 -0.0084,0 -0.01519,0.0065 -0.01519,0.01434 0,0.0079 0.0028,0.01434 0.0063,0.01434 0.0035,0 0.01031,-0.0065 0.01519,-0.01434 z m 0.02868,-0.04302 c 0.0049,-0.0079 0.002,-0.01434 -0.0063,-0.01434 -0.0084,0 -0.01519,0.0065 -0.01519,0.01434 0,0.0079 0.0028,0.01434 0.0063,0.01434 0.0035,0 0.01031,-0.0065 0.01519,-0.01434 z m 8.793754,-0.03137 c -0.0046,-0.01144 -0.008,-0.008 -0.0087,0.0087 -6.22e-4,0.01512 0.0028,0.02359 0.0075,0.01882 0.0048,-0.0048 0.0053,-0.01713 0.0011,-0.02749 z m -8.765072,-0.01165 c 0.0049,-0.0079 0.002,-0.01434 -0.0063,-0.01434 -0.0084,0 -0.01519,0.0065 -0.01519,0.01434 0,0.0079 0.0028,0.01434 0.0063,0.01434 0.0035,0 0.01031,-0.0065 0.01519,-0.01434 z m -7.51214,-0.08874 c -0.0046,-0.01144 -0.008,-0.008 -0.0087,0.0087 -6.22e-4,0.01512 0.0028,0.02359 0.0075,0.01882 0.0048,-0.0048 0.0053,-0.01713 0.0011,-0.02749 z m 7.583846,-0.02599 c 0.0049,-0.0079 0.002,-0.01434 -0.0063,-0.01434 -0.0084,0 -0.01519,0.0065 -0.01519,0.01434 0,0.0079 0.0028,0.01434 0.0063,0.01434 0.0035,0 0.01031,-0.0065 0.01519,-0.01434 z m 0.06453,0 c 0,-0.0079 -0.0028,-0.01434 -0.0063,-0.01434 -0.0035,0 -0.01031,0.0065 -0.01519,0.01434 -0.0049,0.0079 -0.002,0.01434 0.0063,0.01434 0.0084,0 0.01519,-0.0065 0.01519,-0.01434 z m -7.63404,-0.03137 c -0.0046,-0.01144 -0.008,-0.008 -0.0087,0.0087 -6.22e-4,0.01512 0.0028,0.02359 0.0075,0.01882 0.0048,-0.0048 0.0053,-0.01713 0.0011,-0.02749 z m -0.04302,-0.04302 c -0.0046,-0.01144 -0.008,-0.008 -0.0087,0.0087 -6.22e-4,0.01512 0.0028,0.02359 0.0075,0.01882 0.0048,-0.0048 0.0053,-0.01713 0.0011,-0.02749 z m 27.664178,-0.03675 c -0.0036,-0.0138 -0.0066,-0.0025 -0.0066,0.0251 0,0.02761 0.003,0.0389 0.0066,0.0251 0.0036,-0.0138 0.0036,-0.03639 0,-0.05019 z m -27.635496,0.02241 c -0.0046,-0.01144 -0.008,-0.008 -0.0087,0.0087 -6.22e-4,0.01512 0.0028,0.02359 0.0075,0.01882 0.0048,-0.0048 0.0053,-0.01713 0.0011,-0.02749 z m 7.691404,0.01703 c 0,-0.0079 -0.0028,-0.01434 -0.0063,-0.01434 -0.0035,0 -0.01031,0.0065 -0.01519,0.01434 -0.0049,0.0079 -0.002,0.01434 0.0063,0.01434 0.0084,0 0.01519,-0.0065 0.01519,-0.01434 z m -7.734427,-0.06005 c -0.0046,-0.01144 -0.008,-0.008 -0.0087,0.0087 -6.23e-4,0.01512 0.0028,0.02359 0.0075,0.01882 0.0048,-0.0048 0.0053,-0.01713 0.0011,-0.02749 z m 0.02868,-0.01434 c -0.0046,-0.01144 -0.008,-0.008 -0.0087,0.0087 -6.22e-4,0.01512 0.0028,0.02359 0.0075,0.01882 0.0048,-0.0048 0.0053,-0.01713 0.0011,-0.02749 z m 7.684234,0.0027 c 0.0049,-0.0079 0.002,-0.01434 -0.0063,-0.01434 -0.0084,0 -0.01519,0.0065 -0.01519,0.01434 0,0.0079 0.0028,0.01434 0.0063,0.01434 0.0035,0 0.01031,-0.0065 0.01519,-0.01434 z m -7.727257,-0.04571 c -0.0046,-0.01144 -0.008,-0.008 -0.0087,0.0087 -6.23e-4,0.01512 0.0028,0.02359 0.0075,0.01882 0.0048,-0.0048 0.0053,-0.01713 0.0011,-0.02749 z m 7.806133,0.01703 c 0,-0.0079 -0.0028,-0.01434 -0.0063,-0.01434 -0.0035,0 -0.01031,0.0065 -0.01519,0.01434 -0.0049,0.0079 -0.002,0.01434 0.0063,0.01434 0.0084,0 0.01519,-0.0065 0.01519,-0.01434 z m -7.777451,-0.03137 c -0.0046,-0.01144 -0.008,-0.008 -0.0087,0.0087 -6.22e-4,0.01512 0.0028,0.02359 0.0075,0.01882 0.0048,-0.0048 0.0053,-0.01713 0.0011,-0.02749 z m 2.394973,-0.04302 c -0.0046,-0.01144 -0.008,-0.008 -0.0087,0.0087 -6.22e-4,0.01512 0.0028,0.02359 0.0075,0.01882 0.0048,-0.0048 0.0053,-0.01713 0.0011,-0.02749 z m -2.437997,-0.01434 c -0.0046,-0.01144 -0.008,-0.008 -0.0087,0.0087 -6.23e-4,0.01512 0.0028,0.02359 0.0075,0.01882 0.0048,-0.0048 0.0053,-0.01713 0.0011,-0.02749 z m 0.02868,-0.01434 c -0.0046,-0.01144 -0.008,-0.008 -0.0087,0.0087 -6.23e-4,0.01512 0.0028,0.02359 0.0075,0.01882 0.0048,-0.0048 0.0053,-0.01713 0.0011,-0.02749 z m -0.04332,-0.05826 c -0.004,-0.0099 -0.0072,-0.0018 -0.0072,0.01793 0,0.01972 0.0033,0.02779 0.0072,0.01793 0.004,-0.0099 0.004,-0.02599 0,-0.03585 z m 0.02868,-0.02868 c -0.004,-0.0099 -0.0072,-0.0018 -0.0072,0.01793 0,0.01972 0.0033,0.02779 0.0072,0.01793 0.004,-0.0099 0.004,-0.02599 0,-0.03585 z m 7.842285,0.01793 c 0.0049,-0.0079 0.002,-0.01434 -0.0063,-0.01434 -0.0084,0 -0.01519,0.0065 -0.01519,0.01434 0,0.0079 0.0028,0.01434 0.0063,0.01434 0.0035,0 0.01031,-0.0065 0.01519,-0.01434 z m -7.885308,-0.06095 c -0.004,-0.0099 -0.0072,-0.0018 -0.0072,0.01793 0,0.01972 0.0033,0.02779 0.0072,0.01793 0.004,-0.0099 0.004,-0.02599 0,-0.03585 z m 7.970157,0.0087 c 0.01367,-0.03561 -0.0014,-0.04047 -0.01966,-0.0063 -0.0088,0.01646 -0.01002,0.02991 -0.0027,0.02991 0.0073,0 0.01738,-0.0106 0.02235,-0.02356 z m -7.941035,-0.04428 c -0.0036,-0.01395 -0.0069,-0.006 -0.0071,0.01765 -2.91e-4,0.02366 0.0027,0.03508 0.0066,0.02537 0.0039,-0.0097 0.0042,-0.02907 5.32e-4,-0.04302 z m -0.04346,-0.03613 c -0.004,-0.0099 -0.0072,-0.0018 -0.0072,0.01793 0,0.01972 0.0033,0.02779 0.0072,0.01793 0.004,-0.0099 0.004,-0.02599 0,-0.03585 z m 8.021329,-0.008 c -1.89e-4,-0.0209 -0.0021,-0.02128 -0.01412,-0.0027 -0.01815,0.02809 -0.01815,0.04707 0,0.03585 0.0079,-0.0049 0.01424,-0.01978 0.01412,-0.03311 z m -7.992207,-0.05625 c -0.0036,-0.01395 -0.0069,-0.006 -0.0071,0.01765 -2.91e-4,0.02366 0.0027,0.03508 0.0066,0.02537 0.0039,-0.0097 0.0042,-0.02907 5.32e-4,-0.04302 z m 7.956574,0.03917 c 0.0049,-0.0079 0.002,-0.01434 -0.0063,-0.01434 -0.0084,0 -0.01519,0.0065 -0.01519,0.01434 0,0.0079 0.0028,0.01434 0.0063,0.01434 0.0035,0 0.01031,-0.0065 0.01519,-0.01434 z m -8.000037,-0.06095 c -0.004,-0.0099 -0.0072,-0.0018 -0.0072,0.01793 0,0.01972 0.0033,0.02779 0.0072,0.01793 0.004,-0.0099 0.004,-0.02599 0,-0.03585 z m 0.02907,-0.09322 c -0.0036,-0.0138 -0.0066,-0.0025 -0.0066,0.0251 0,0.02761 0.003,0.0389 0.0066,0.0251 0.0036,-0.0138 0.0036,-0.03639 0,-0.05019 z m -0.04341,0.0072 c -0.004,-0.0099 -0.0072,-0.0018 -0.0072,0.01793 0,0.01972 0.0033,0.02779 0.0072,0.01793 0.004,-0.0099 0.004,-0.02599 0,-0.03585 z m -0.0139,-0.09294 c -0.0036,-0.01395 -0.0069,-0.006 -0.0071,0.01765 -2.91e-4,0.02366 0.0027,0.03508 0.0066,0.02537 0.0039,-0.0097 0.0042,-0.02907 5.33e-4,-0.04302 z m 0.04321,-0.05047 c -0.0034,-0.01775 -0.0062,-0.0032 -0.0062,0.03227 0,0.0355 0.0028,0.05002 0.0062,0.03227 0.0034,-0.01775 0.0034,-0.04679 0,-0.06453 z m -0.0576,-0.06454 c -0.0036,-0.0138 -0.0066,-0.0025 -0.0066,0.0251 0,0.02761 0.003,0.0389 0.0066,0.0251 0.0036,-0.0138 0.0036,-0.03639 0,-0.05019 z m 0.04341,-0.100389 c -0.0033,-0.02169 -0.006,-0.0039 -0.006,0.03944 0,0.04338 0.0027,0.06113 0.006,0.03944 0.0033,-0.02169 0.0033,-0.05719 0,-0.07888 z m -0.05749,-0.007 c -0.0034,-0.01784 -0.0064,-0.0066 -0.0065,0.02493 -1.6e-4,0.03155 0.0026,0.04614 0.0062,0.03243 0.0036,-0.01371 0.0037,-0.03952 2.89e-4,-0.05736 z m -0.01434,-0.129071 c -0.0034,-0.01784 -0.0064,-0.0066 -0.0065,0.02493 -1.59e-4,0.03155 0.0026,0.04615 0.0062,0.03244 0.0036,-0.01371 0.0037,-0.03953 2.9e-4,-0.05737 z m -0.01419,-0.150553 c -0.0033,-0.0218 -0.0061,-0.0074 -0.0062,0.03207 -1.07e-4,0.03944 0.0026,0.05727 0.006,0.03964 0.0034,-0.01764 0.0035,-0.04991 1.97e-4,-0.07171 z M 61.229686,9.7878388 C 61.182263,8.6957703 61.047438,8.0313025 60.756823,7.457401 60.399725,6.7522098 59.824676,6.2513456 59.028055,5.9516535 58.559181,5.7752613 58.115522,5.7024185 57.436329,5.6903145 c -0.460257,-0.0082 -0.722135,0.010314 -1.082757,0.076557 -0.711296,0.1306584 -1.447644,0.423217 -2.022103,0.8034017 -0.703309,0.4654591 -1.282983,1.2344421 -1.715206,2.2753523 l -0.07027,0.1692261 -0.0036,-1.6229283 -0.0036,-1.6229282 -0.03221,0.00714 c -0.01771,0.00393 -0.125782,0.033231 -0.240153,0.065116 -0.661877,0.1845236 -1.412519,0.2932448 -2.115075,0.3063423 -0.07112,0.00133 -0.103502,0.00512 -0.07195,0.00843 0.0942,0.00989 0.93152,-0.024223 1.144031,-0.04661 0.108445,-0.011424 0.256799,-0.030991 0.329675,-0.043483 0.118164,-0.020255 0.887676,-0.2071742 0.947658,-0.2301913 0.02209,-0.00848 0.02384,0.1084226 0.02426,1.6237065 4.12e-4,1.4722347 0.0026,1.6300197 0.02251,1.6041585 0.01213,-0.015775 0.103106,-0.1900203 0.202166,-0.3872112 0.221286,-0.4404957 0.327123,-0.6290444 0.500942,-0.8924243 0.453492,-0.6871566 0.944318,-1.1092118 1.729666,-1.4873177 1.157176,-0.5571223 2.277849,-0.6982964 3.470141,-0.437142 1.070604,0.2345007 1.826356,0.7958574 2.26707,1.6839327 0.174183,0.3509945 0.305237,0.7551458 0.346453,1.0684161 0.06474,0.4920702 0.09297,1.5099663 0.1227,4.4242473 0.01572,1.540783 0.04049,3.709413 0.04652,4.072888 0.002,0.118314 0.0056,-1.398263 0.008,-3.370172 0.0031,-2.460997 -5.36e-4,-3.699966 -0.01144,-3.9509885 z M 33.418115,17.184547 c -0.0032,-0.02578 -0.0059,-0.0081 -0.0059,0.03918 -8.1e-5,0.04733 0.0025,0.06842 0.0058,0.04687 0.0033,-0.02155 0.0033,-0.06027 1.46e-4,-0.08605 z m -0.01423,-0.244057 c -0.003,-0.03352 -0.0055,-0.0061 -0.0055,0.06095 0,0.06705 0.0025,0.09447 0.0055,0.06095 0.003,-0.03352 0.003,-0.08838 0,-0.1219 z m -0.01421,-0.38004 c -0.0028,-0.05324 -0.005,-0.0097 -0.005,0.0968 0,0.106483 0.0023,0.150045 0.005,0.0968 0.0028,-0.05324 0.0028,-0.140364 0,-0.193605 z m -0.01031,-5.362529 c -0.0054,-0.298343 -0.0097,0.732128 -0.0097,2.289936 l 8.8e-5,2.832378 0.0097,-2.289936 c 0.0053,-1.259464 0.0053,-2.534035 -8.6e-5,-2.832378 z m 0.05342,4.078995 c -0.0025,-0.09662 -0.0045,-0.01757 -0.0045,0.175679 0,0.193247 0.002,0.272303 0.0045,0.175679 0.0025,-0.09662 0.0025,-0.254734 0,-0.351358 z m -0.01432,-0.99671 c -0.0024,-0.132118 -0.0043,-0.02402 -0.0043,0.240214 0,0.264236 0.0019,0.372332 0.0043,0.240215 0.0024,-0.132118 0.0024,-0.348311 0,-0.480429 z m -0.01434,-1.19126 c -0.0023,-0.147374 -0.0042,-0.02272 -0.0042,0.277011 3e-6,0.29973 0.0019,0.420309 0.0042,0.267953 0.0023,-0.152356 0.0023,-0.39759 -7e-6,-0.544964 z M 49.840283,7.748049 C 49.675825,7.4235384 49.534623,7.1994971 49.414546,7.0725439 49.351988,7.0064028 49.304225,6.9729971 49.204505,6.9256384 48.943674,6.8017661 48.428363,6.6494345 48.162661,6.6176578 c -0.07377,-0.00882 -0.148533,-0.018802 -0.166137,-0.022177 -0.05585,-0.010705 -0.08,-0.082916 -0.08707,-0.2602754 l -0.0064,-0.161338 0.464308,-0.00169 c 0.255369,-9.319e-4 0.551429,-0.00628 0.657912,-0.011883 l 0.193606,-0.010188 -0.164924,-0.00253 c -0.191824,-0.00294 -0.803565,-0.039255 -1.008986,-0.059893 -0.07774,-0.00781 -0.147115,-0.0142 -0.154168,-0.0142 -0.0071,0 -0.01282,0.1328233 -0.01282,0.2989335 v 0.2989335 l 0.200689,0.00913 c 0.607208,0.027622 1.042292,0.1740619 1.333591,0.4488583 0.270031,0.2547342 0.456314,0.6763841 0.537762,1.2172187 0.01188,0.078876 0.02309,0.1530919 0.02491,0.1649233 0.0018,0.011831 0.0052,-0.090059 0.0076,-0.2264223 l 0.0043,-0.2479339 z m -8.11414,0.360627 C 41.684979,7.7545893 41.540943,7.4450729 41.299034,7.1908672 41.010578,6.8877515 40.677829,6.7409134 40.03662,6.6337801 39.83,6.5992581 39.756485,6.5672925 39.733755,6.5020901 c -0.0088,-0.025124 -0.01592,-0.1092517 -0.01592,-0.186951 V 6.1738676 l 0.821031,-0.00215 c 0.451567,-0.00118 0.804897,-0.00414 0.785178,-0.00657 -0.01972,-0.00243 -0.239138,-0.01142 -0.487599,-0.019976 -0.415439,-0.014305 -0.902307,-0.043866 -1.086343,-0.06596 l -0.07529,-0.00904 v 0.3005859 0.3005861 l 0.200689,0.00913 c 0.716856,0.03261 1.194469,0.2318092 1.48039,0.6174302 0.156943,0.2116685 0.303765,0.568748 0.356027,0.8658764 0.01007,0.057229 0.02121,0.1011435 0.02477,0.097588 0.0036,-0.00356 -0.0012,-0.072268 -0.01054,-0.1526942 z M 33.286704,8.0542541 C 33.260299,7.8742023 33.225179,7.7584137 33.153702,7.615754 32.979948,7.2689622 32.751024,7.0282347 32.454035,6.8800134 32.249898,6.7781322 31.837932,6.6641809 31.488095,6.612831 31.295513,6.5845631 31.293624,6.5819768 31.287705,6.3384335 l -0.0047,-0.1932483 0.09074,3.11e-4 c 0.04991,1.709e-4 0.284349,0.00952 0.520978,0.020782 0.731542,0.034809 1.111793,0.040608 1.527333,0.023294 0.887391,-0.036975 1.494968,-0.1157517 2.119553,-0.2748133 0.183743,-0.046794 0.336976,-0.085079 0.340515,-0.085079 0.0035,0 0.0081,0.5017612 0.0102,1.1150249 l 0.0038,1.1150248 0.0035,-1.1437071 c 0.0021,-0.6783024 -0.0018,-1.1437072 -0.0095,-1.1437072 -0.0072,0 -0.103365,0.02592 -0.213782,0.057601 -0.741192,0.2126596 -1.416199,0.3020859 -2.44782,0.3242923 -0.527217,0.011349 -1.496035,-0.026798 -1.910959,-0.075243 l -0.07529,-0.00879 v 0.3005859 0.3005861 l 0.200688,0.00913 c 0.464498,0.02113 0.830075,0.112195 1.11067,0.2766679 0.140571,0.082396 0.337316,0.2737381 0.430883,0.4190494 0.127737,0.1983791 0.234152,0.4699968 0.289521,0.73899 0.03431,0.166695 0.04125,0.1335091 0.01273,-0.060929 z"
     id="path7" />
  <path
     style="fill:#ffffff;fill-opacity:1;stroke-width:0.0101407"
     d="m 13.597573,16.965439 c 0.0018,-0.01673 0.0202,-0.107999 0.04097,-0.202815 0.112998,-0.51577 0.210258,-1.138445 0.279568,-1.789838 0.01751,-0.164534 0.03389,-0.309419 0.03641,-0.321969 l 0.0046,-0.02282 h 0.315626 0.315625 l -0.0062,0.06845 c -0.0121,0.13253 -0.03789,0.51659 -0.04614,0.687034 -0.007,0.145262 -0.0086,0.09999 -0.0099,-0.287625 l -0.0015,-0.460017 -0.210421,0.0046 c -0.172477,0.0038 -0.220477,0.0081 -0.266194,0.02397 l -0.05577,0.01937 -0.0077,0.05577 c -0.127637,0.923865 -0.204895,1.409786 -0.286187,1.799979 -0.04738,0.227402 -0.108536,0.48094 -0.10274,0.425911 z"
     id="path8" />
</svg>
